#N canvas 415 150 550 650 12;
#X obj 50 20 bng 15 250 50 0 empty empty empty 17 7 0 10 -262144 -1 -1;
#X obj 50 80 metro 70;
#X obj 50 110 f;
#X obj 80 110 + 1;
#X obj 50 140 moses 9;
#X msg 120 170 0;
#X msg 80 140 0;
#X obj 50 200 random 5;
#X obj 50 230 sel 0 1 2 3 4;
#X msg 50 260 72;
#X msg 80 260 75;
#X msg 110 260 77;
#X msg 140 260 79;
#X msg 170 260 82;
#X obj 50 300 mtof;
#X obj 50 330 osc~;
#X obj 50 360 *~;
#X obj 90 360 line~;
#X msg 90 330 0.2 \, 0 60;
#X obj 50 50 t b b b;
#X obj 250 360 delwrite~ aurio_tail 1000;
#X obj 250 390 delread~ aurio_tail 200;
#X obj 250 450 *~;
#X obj 50 450 +~;
#X obj 50 500 dac~;
#X obj 300 110 f 0.2;
#X obj 300 140 t f f;
#X obj 330 170 * 1.125;
#X msg 350 110 0.2;
#X connect 0 0 19 0;
#X connect 1 0 2 0;
#X connect 1 0 7 0;
#X connect 1 0 25 0;
#X connect 2 0 3 0;
#X connect 2 0 4 0;
#X connect 3 0 2 1;
#X connect 4 0 8 0;
#X connect 4 1 5 0;
#X connect 4 1 6 0;
#X connect 5 0 1 0;
#X connect 6 0 2 1;
#X connect 7 0 8 0;
#X connect 8 0 9 0;
#X connect 8 1 10 0;
#X connect 8 2 11 0;
#X connect 8 3 12 0;
#X connect 8 4 13 0;
#X connect 9 0 14 0;
#X connect 9 0 18 0;
#X connect 10 0 14 0;
#X connect 10 0 18 0;
#X connect 11 0 14 0;
#X connect 11 0 18 0;
#X connect 12 0 14 0;
#X connect 12 0 18 0;
#X connect 13 0 14 0;
#X connect 13 0 18 0;
#X connect 14 0 15 0;
#X connect 15 0 16 0;
#X connect 16 0 20 0;
#X connect 16 0 23 0;
#X connect 17 0 16 1;
#X connect 18 0 17 0;
#X connect 19 0 1 0;
#X connect 19 1 6 0;
#X connect 19 2 28 0;
#X connect 21 0 22 0;
#X connect 22 0 20 0;
#X connect 22 0 23 1;
#X connect 23 0 24 0;
#X connect 23 0 24 1;
#X connect 25 0 26 0;
#X connect 26 0 22 1;
#X connect 26 1 27 0;
#X connect 27 0 25 1;
#X connect 28 0 25 0;